<svg id="Layer_1" data-name="Layer 1" xmlns="http://www.w3.org/2000/svg" viewBox="0 0 1389.14 512"><defs><style>.cls-1{fill:#fff;}.cls-2{fill:#e08610;}</style></defs><title>himalayan sherpa kitchen</title><rect width="1389.14" height="512"/><path class="cls-1" d="M63.85,283.94s6.82,0.58,23-11.49c-6,7.21-10.91,16.75-11.49,21s-2.53,16-2.53,16,9.93,1.36,11.88-1.56,6.43-7,10.52-24.15c12.66-6.23,16.55-8.18,16.55-8.18s-7.21,7.6-8.18,12.85S94,333.21,93.06,334.57s-15.58,25.12-15.58,25.12l8.76-42.06s-14.61-1.95-16.75.58-8,20.64-5.65,26.49c-6.82,1.95-18.5,15-18.5,15S62.88,315.29,63.85,283.94Z"/><path class="cls-1" d="M111.76,288l15.38-8s-6.62,9-7.69,15.58S110.78,332,110.78,332l-15,13.63S112.93,314.51,111.76,288Z"/><path class="cls-1" d="M134.54,290l-18.11,51.41S126,348.2,132.21,362c-7-21.23,3.7-49.17,3.7-49.17l8.57,19.57,14.22-21-4.28,34.28L169,364.76s-5.06-22.2-3.89-33.89,7.21-46,8-47.32,2.53-4.67,2.53-4.67l-14.8,8.18-13,22.4s-3.31-22-3.12-23.17A15.25,15.25,0,0,1,146,283Z"/><path class="cls-1" d="M212.44,289.39c2.34-9.35,3.12-10.52,3.12-10.52l-12.07,5.65s-23.76,44.4-33.3,46.93l11.49,28.24s-1-15.77,1.36-20.45,6.23-11.49,6.23-11.49l15.19-3.89,2.34,19.47,9.74-6.62S210.1,298.74,212.44,289.39Zm-16.16,25.12,5.06-10.32,1.56,8.67Z"/><path class="cls-1" d="M232.69,282.77s-4.67,19.47-4.48,29-9.74,41.48-9.74,41.48,6-8.37,7.11-9,24.83-6.43,24.83-6.43,0.19-9.74,1.75-11.88,6.43-9.35,6.43-9.35l-26.49,13.44s11.49-51.8,13.44-55.11C235.81,280.82,232.69,282.77,232.69,282.77Z"/><path class="cls-1" d="M296.76,303.22c-1.36-6.43-2.73-24.34-2.73-24.34s-24.73,44.4-25.9,46.35-13.63,14.22-13.63,14.22c7.4,2.34,7.79,14.8,7.79,14.8l9.93-24.73,6-4.28,12.46-1.56s0.58,6.43,3.7,21.62c4.28,2.14,15,11.88,15,11.88S298.13,309.64,296.76,303.22Zm-7.21,8.37H284.3l5.26-7v7Z"/><polygon class="cls-1" points="305.92 274.79 312.54 285.11 322.86 309.84 314.39 341 311.18 347.43 315.85 342.56 325.2 341.58 329.68 308.09 358.89 266.61 357.13 266.61 348.57 272.64 339.02 274.79 328.9 294.45 322.67 284.33 305.92 274.79"/><path class="cls-1" d="M373.1,303V281.41l-1.56-4.67L363,287.44l-7.6,18.7-22.2,26.29,6.23,12.85,1.56-6.23,10.52-14,14.22-1.95L369,347.42l-4.28,22,9.35-22,6.43-11.68Zm-7,9.15-4.87,1L366.09,303v9.15Z"/><path class="cls-1" d="M405.24,275L380.5,364l8.76-13.83,9.74-7.21-1.36-4.09L403.09,310l10.52,27.07v3.12l1.56,1.56,9.15-6.62-1.56-12.07,17.33-57.25S427.24,281,422.76,283.16c-0.39,4.67-3.12,32.72-4.67,34.86C412.05,297,405.24,275,405.24,275Z"/><path class="cls-1" d="M487.81,305.55l15-12.07-2.92-8.76s-10.91-5.65-21.23-3.89-22,12.27-22,16.16-2.14,14.61,15.19,22.59c7.85,0.78,9,.78,9,0.78s0.39,14.41-19.08,6c-6,15.38-17.33,45.76-17.33,45.76s20.64-26.29,22.4-27.26,10.52-3.51,13.63-6.43,12.66-9.15,12.27-14.22,0-10.76-8.71-13.68a88.5,88.5,0,0,1-16.5-7.74s-3.94-10.81,13.73-12.12S487.81,305.55,487.81,305.55Z"/><path class="cls-1" d="M511.57,272.25v10.13l-8.76,47.91-7,7.6s5.84,6.43,7,12.56,2.63,21.71,2.63,21.71l6.13-53.85,15.77-3.41L525,334.08l-2.92,4.09,5.26,2.92v17.53l-2.92,13.53,11.68-31.94,7-58.42,5.55-11.39-12.17,10.08-7,23.71-13,2.92L519,287.44Z"/><path class="cls-1" d="M558.89,280.49l-15.77,79.4s10.71-24.34,39.14-26.29c5.26-12.32,5.45-15.19,5.45-15.19s-14.8,9.15-22.3,9.54l-7.5.39,3.51-11.68,21-5.45L591.61,296s-10.66,8-27.46,9.88c1.9-5.4,3.21-10.66,3.21-10.66L591.61,291l9.64-17.09s-7.6,6.86-9.79,7.45S565.9,289.11,558.89,280.49Z"/><path class="cls-1" d="M627.44,316.9c10.52-12.51,10.13-16.6,9.15-22.44s-9-16.36-31.74-7.21A21,21,0,0,1,599,289l-5.26,23.37,10.13-8.57-10.13,49.66-9.15,18.7L608,345.67V324.06s18.7-3.51,21.23,10.13l2.53,13.63,9.54-11.3S635.81,322.6,627.44,316.9Zm-1.36-13.68c-1.47,5.05-15.38,10.71-15.38,10.71l3.12-19.08s3.12-1.56,5.16-2.53c1.14-.54,3.16.31,4.72,1.16a5.77,5.77,0,0,1,3,4.59A14.59,14.59,0,0,1,626.08,303.22Z"/><path class="cls-1" d="M693.85,289.78c-0.58-7.6-16.55-16.74-37.59-6.13l-9.35,27.16L658.6,300.3l-8.37,40.9,5.84,17.14,2.53,7.21,6.82-43.82s15.77-6.43,19.08-10.91S694.43,297.38,693.85,289.78Zm-15.69,12.78a17.15,17.15,0,0,1-4.42,4.65l-7,5a56,56,0,0,1,1.34-15.7,9.78,9.78,0,0,1,3.25-5.26c9.33-7.84,12.55-.55,12.55.92C683.92,294.74,680.44,299,678.15,302.56Z"/><path class="cls-1" d="M722.28,274.4c-1.56,6.43-21,37.39-26.68,46.54a31,31,0,0,1-15,12.27c15-.39,3.31,31.35,3.31,31.35l21.42-36.66,15.38-3.07c3.7,10.91-4.09,47.32-4.09,47.32l16-29.21s2.14-2.14,2.14-8.18C725.2,314.71,722.67,283.65,722.28,274.4Zm-12.85,42.26,6-13.62,2.73,11.87Z"/><path class="cls-1" d="M778.27,271L764.83,376.15s10.81-22.49,18.11-26.58v-26l25.41,22.2s-4.67-5.26,2.92-16.36a92,92,0,0,1-23.22-17.23l33.16-33.34s-16.65,9.11-21,8.81L784.4,306.33l5.55-21S779.15,280.63,778.27,271Z"/><path class="cls-1" d="M830.95,274.4l-18.7,88.41s6.82-23.56,18.7-25.32c0-17.14,1.17-31.16,10.52-47.52C832.9,277.51,830.95,274.4,830.95,274.4Z"/><path class="cls-1" d="M845.36,288l-3.89,23s4.87-14.61,16.75-13.44c-4.09,24.54-11.3,65.24-11.3,65.24a36.32,36.32,0,0,1,16.16-23.56,120.7,120.7,0,0,1,5.26-41.68s2.34-6.43,15.58-5.45a98.72,98.72,0,0,1,9.74-17.72S877.49,288,845.36,288Z"/><path class="cls-1" d="M912.94,301.27l-3.51,9.15,14.41-6s12.27-23.17-4.09-23.17-32.33,26.68-33.11,37.39-1,25.71,9.54,25.32,25.51-12.27,25.51-12.27l9.35-13,5.45-17.14s-25.09,33.69-36.81,27.46C889,318.6,912.94,301.27,912.94,301.27Z"/><path class="cls-1" d="M945.36,283.26l-18.7,66.89s9.35-12,14.61-12l4.09-20.74,18.11-4.86s-0.29,12.75-2,17.72S948,361.54,948,361.54,962.59,342,971.65,337.3c5-24.73,10.22-67.77,15.19-73A107.35,107.35,0,0,1,974,277.12l-7.3,26-18.4,4.09s2.92-14.9,8.47-23.66S962,271,962,271Z"/><path class="cls-1" d="M996.77,284.13l-20.16,73s5.84-13.15,31-17.82l13.15-3.21,7.3-17.53s-9.15,11.68-16.36,11.49-15.58-.19-15.58-0.19l5.06-12.27,15.19-4.72,9.74-17.67s-11.1,12.85-23.76,10.71l3.12-10.13s17.53-4.09,20.25-6.43c4.87-9.35,11.68-23.56,11.68-23.56s-9.72,17.07-33.11,17.92C998.62,284.52,996.77,284.13,996.77,284.13Z"/><path class="cls-1" d="M1050.81,269.53l-23.56,96.4s6.62-17.92,22-27.46l-2.53-1.36s2.53-27.85,4.09-32.13c9.54,24.93,13,36,13,36l6.43-3.7s1-32.33,9.93-50.83,9.15-20.64,9.15-20.64l-15.58,15-8.18,36.81A157.83,157.83,0,0,1,1050.81,269.53Z"/><path class="cls-2" d="M1139,333.21l4.67,12.07h36.22c7,0,32.33.39,35.44,0s16.36,5.45,23.76,3.51,11.49-5.06,14.61-2.92,4.87,0.58,3.31,7.4-3.89,14.61-3.89,14.61H1348s-8.37-25.12-7.21-31,2.14-6,1.56-14.41,8-10.91,9.93-18.5-6.23-12.07-7.4-17.14-0.58-7-4.09-12.07-5.65-15.77-6.62-21.62-8.57-10.91-12.46-15.38-5.45-3.7-4.48-7.21,3.12-14.22,3.31-16,1.75-5.26-4.28-9.54-7.79-5.65-9.15-9.35S1303,189.1,1297,189.1s-20.64-2.14-23.56,0-10.91,8.26-12.46,14.35-2.14,12.52-1.17,13.88-1.17,8.57.58,12.07,6.43,14,7.4,14.8,1.17,2.73.39,3.12-6.23,7.79-8.37,7.79-5.06-1.75-7.79-5.65-3.12-6.82-8.76-6.82-12.07,5.06-19.28,4.67a52.3,52.3,0,0,1-20.45-6,25.13,25.13,0,0,0-10.71-2.92s-2.92-17.33,3.12-25.32,7-15.77,4.67-21.81-8.37-13.44-11.49-17.33c-1.36,4.28-2.14,13-2.14,13s-7.4-10.32-1.17-19.86,27.07-37.39,27.07-37.39-25.9,15.77-37,29-8.37,22.2-4.87,31.94,5.45,12.46-1.17,20.45c2.92-11.68,2.14-17.53-3.89-24.73s-19.28-22.4-20.06-26.29c0.39,6.23,9.54,21.62,8.57,29.8-1,17.72-7.4,22-7.21,36.61s6.43,25.71,3.51,33.5-5.45,16.16-8.37,17.92c7.4-1.36,10.52-4.87,10.52-4.87s-2.34,4.87-.39,7.21c-2.14,2.34-7.21,8.37-6.82,13.24s1.56,18.31,7,27.26a14.55,14.55,0,0,1-1.95,10.13A16.62,16.62,0,0,0,1139,333.21Z"/><path d="M1158.12,278.87s-0.58-3.12,9.54-3.51,31-3.51,30.38,1-2.14,6-.78,6.82,10.71,2.53,11.3,6.82-0.58,40.12-5.06,40.12-16.16-1.75-28.82-1-18.5,5.45-18.31-3.7,0.34-16.74-5.06-22.94,3.31-17.18,8.57-17.37A8.42,8.42,0,0,1,1158.12,278.87Z"/><path d="M1145.07,336.13s1.85,4.67,4.53,4.67,28.19-2.53,36,0,31.94-1.75,36,0a37,37,0,0,0,18.5,1.95c6.43-1.17,19.08-2.34,10.32-6.62s-28,1.56-33.3,1.56-17.14,1-21.81-.39S1154.81,333.4,1145.07,336.13Z"/><path d="M1184.8,156.58a33.81,33.81,0,0,0-2.82,2.62,38.31,38.31,0,0,0-2.85,3.35,24.39,24.39,0,0,0-2.82,4.85,12.61,12.61,0,0,0-.87,3,11.27,11.27,0,0,0-.08,1.59,11.63,11.63,0,0,0,.2,1.58c0.15,0.52.21,1,.42,1.57s0.39,1.2.62,1.75c0.43,1.12.92,2.3,1.45,3.49,1.05,2.38,2.22,4.87,3.21,7.54a32,32,0,0,1,2,8.62l0.09,1.15v1.16a16.41,16.41,0,0,1-.2,2.31,14.65,14.65,0,0,1-.51,2.25l-0.15.55,0,0.07,0,0.14,0,0.12-0.1.24-0.39,1c-0.22.62-.61,1.34-0.92,2a20.65,20.65,0,0,1-1.07,1.9,40.28,40.28,0,0,1-2.34,3.43c-3.23,4.3-6.5,7.92-8.3,11.58a12.35,12.35,0,0,0-1.38,5.27l0,4.43,0,3.86-0.38-3.84-0.44-4.41a13.52,13.52,0,0,1,.89-5.89c1.51-4.14,4.57-8.17,7-12.69a44.78,44.78,0,0,0,3.17-7,22,22,0,0,0,0-15.16c-0.81-2.55-1.81-5.06-2.71-7.56-0.46-1.25-.89-2.49-1.27-3.76-0.21-.64-0.34-1.23-0.51-1.83a13.19,13.19,0,0,1-.32-2,11,11,0,0,1,.1-2c0.07-.64.3-1.23,0.42-1.83a18.19,18.19,0,0,1,1.33-3.18,25.38,25.38,0,0,1,3.43-4.75,41.22,41.22,0,0,1,3.2-3.11A33.87,33.87,0,0,1,1184.8,156.58Z"/><path d="M1192.59,187.73a10.61,10.61,0,0,1,1.15,1.73,18.17,18.17,0,0,1,1.95,5.21,19.42,19.42,0,0,1,.43,3.77,15.43,15.43,0,0,1-.42,4.26,21.66,21.66,0,0,1-.72,2.15c-0.31.72-.62,1.34-1,2.14a27.79,27.79,0,0,1-2.55,3.84c-1,1.19-1.92,2.28-2.76,3.4a16.09,16.09,0,0,0-2.08,3.46,17.53,17.53,0,0,0-1.16,3.65c-0.16.6-.21,1.2-0.31,1.78a15,15,0,0,0-.19,1.69l-0.13,1.57,0,1.42c0,0.9,0,1.68,0,2.32l0.05,2-0.3-2c-0.11-.64-0.21-1.42-0.28-2.32l-0.14-1.44-0.06-1.6a15.74,15.74,0,0,1,0-1.75c0-.61,0-1.24.13-1.88a19,19,0,0,1,.85-4,18,18,0,0,1,1.9-4c0.78-1.29,1.66-2.5,2.43-3.71a24.57,24.57,0,0,0,1.95-3.71l0.63-1.85c0.15-.64.35-1.26,0.49-1.89,0.28-1.24.62-2.43,0.78-3.61a23.49,23.49,0,0,0,.29-3.36c0-.53,0-1,0-1.53l-0.1-1.39c-0.09-.87-0.19-1.64-0.31-2.27C1192.81,188.46,1192.59,187.73,1192.59,187.73Z"/><path d="M1159.48,186.37a25.88,25.88,0,0,1,1.4,3.06c0.39,1,.81,2.24,1.22,3.68a37.65,37.65,0,0,1,1,5,35.78,35.78,0,0,1,.38,6.08,33,33,0,0,1-.26,3.37,27.09,27.09,0,0,1-.77,3.48,62,62,0,0,1-2.71,6.6c-0.92,2.13-1.9,4.28-2.66,6.48a32.51,32.51,0,0,0-1.6,6.71,23,23,0,0,0-.18,3.39l0.06,1.68,0.19,1.65a37,37,0,0,0,1.74,6.11c0.32,1,.62,1.9.9,2.81l0.19,0.68,0.09,0.34,0,0.08,0,0.13v0.07l0,0.17a8.57,8.57,0,0,1,.14,1.71,25.83,25.83,0,0,1-.69,5.11c-0.32,1.47-.69,2.72-1,3.74s-0.64,1.81-.86,2.35l-0.36.82,0-.89c0-.58,0-1.42,0-2.48l0-3.8c0-1.44,0-3.11-.1-4.74a6,6,0,0,0-.16-1l0-.17v-0.06l0,0.09,0-.09-0.12-.34-0.24-.7a22.38,22.38,0,0,1-.8-3c-0.46-2.08-.62-4.34-0.9-6.64a45.93,45.93,0,0,1-.38-7.19,39.29,39.29,0,0,1,.93-7.43,58.42,58.42,0,0,1,2.1-7.1c0.41-1.15.86-2.25,1.29-3.32l0.62-1.54c0.18-.5.37-1,0.52-1.49a42,42,0,0,0,1.5-5.92,39.85,39.85,0,0,0,.57-5.58c0.07-1.76,0-3.38-.1-4.83s-0.25-2.71-.39-3.75C1159.76,187.56,1159.48,186.37,1159.48,186.37Z"/><path d="M1184.43,244.26s-2.6,1-2.6,2.48,1.43,0.29,1.3,4.67-1.2,9.2,1.67,9.64,12.37,2.78,14.27.58,4.09-7.55,3.65-8.23c13.29-.83,17.38,0,21.18,1.8v6s-1.17,6,5.55,6,9.49-.58,11.54,1.75,4.53,5.55,7.89,7.6,2.78,7.45,1.31,9.64,0,5.11-2.34,4.82-2-5.19-4.75-8.62-5.7-8.76-7.45-8-1.61,3.36-4,3.58-4.75.07-5.77,0.58a7.61,7.61,0,0,1-3.87.95c-1.31-.15-4.82.37-4.6,2.26s1.17,9.17,3.51,9.22,7.6,2.24,7.6,4.95-1.75,7.08-2.7,8-5.45,5.82-2.34,9.91,11.59,11.88,17.72,14.8,9.93,3.41,17.14-4.19l2.24,0.19s2,9.45,5.36,12.17-4.33,13.19-5.36,17.58-2.48,10.22-2.48,10.22h82.82s1.31-6.13-2.34-14.17-4.67-20.59-4.67-20.59,3.94-.88,3.8-3.36-1.31-8.18.58-11.54,8.18-12.41,7-14.61-5.7-9.2-5.84-13.29-0.44-3.65-2.63-7-3.65-13.29-4.38-20.3-14.46-22.49-26.87-25.41c-0.44-1-1.61-4.67-.29-4.82s9.79,1.75,10.52-7.74,0.29-12.85-8.76-14.46c-2.78-7.16-5.55-14.9-15.19-14.61s-13.88.15-17.09,2.48-11.83,11.54-11.83,16.8,2.53,5.94,2.53,7,0.58,1.36-1.07,4,1.17,3.6,1.36,5.84,4.38,13.34,7.6,15.38,4,2.73,3.8,4.58c0,0,1.12,1.39-6.18,2.85s-6.35,11.17-9.93,9.93-4.6-3.36-8.4-3.36-5-8.11-9.86-9-17.82,3.36-24.46,1.31-7.81,0-11.68-2.19-6.86-6.65-12.71-4.82S1186.74,243.31,1184.43,244.26Z"/><path class="cls-2" d="M1266.4,223.18s-0.58,2.92,1.36,4.19,3.21,1.66,3.12,4.38,0.39,7.89,2.24,8.47,12.37,1.95,11.78,0a17.46,17.46,0,0,0-5.36-8.57c-3.89-3.7-5.16-3.51-5.06-5.16s0.39-3.8-1.95-3.8S1266.46,221.73,1266.4,223.18Z"/><path class="cls-2" d="M1284.92,245.48s1.24,6-1.68,8.47,0.1,4.67-4.09,6.33a11.66,11.66,0,0,0-7,6.52c-1.07,2.43-1.36,5.94-3,4.19s-1.56.58-1.66,2.34,0.1,13-2,12.07-1.07-3.41-2.82-2.73,0.39,3.6-.78,3.7-1.07-1.95-1.17.1,1.27,5.84-.49,6.43-2.53-.78-3.51,0-1.46,8.67-4.67,8.18-3.7.1-1.75-6.62-0.1-5.16,3-7.5,11.59-13.83,11.88-20.84,0.88-7.4,5-8.57,11.59-4.09,11.49-8.08S1281.83,245,1284.92,245.48Z"/><path class="cls-2" d="M1242.25,304.68a2.11,2.11,0,0,1,2.24,2.43c-0.19,2.53.49,6.62-2.24,6.33s-0.78-2.63-2.24-2.63,0.49,7.4-1.36,7.4-2.43-1.85-2.43-3.31-2.14,2.24-2.34-.68-0.19-5.84-1.75-3.89,0.58,5.16-.68,5.26-3-.58-2.73-4.14-1.85-11.05,4.28-11.34,5.84,2.43,4.38,4.19-2,3.51-.84,3.21,3.86,1.95,3.86.19S1240,305.26,1242.25,304.68Z"/><path class="cls-2" d="M1264.55,329.12s-0.68,3,4.09,5.44,13.34,5.37,20.06,5.17,24.93-.61,24.15-5.17-2.14-6.9-13-6.61-23.56,1-25.71-.58-7.05-1.85-7.05-1.85S1263.57,323.67,1264.55,329.12Z"/><path class="cls-2" d="M1268.05,323.28a49.58,49.58,0,0,0,17.13,1.94c8.67-.77,9.84-2.3,17.92-0.9s19.38,3.34,25.41,1.49,6.62-1.27,5.45-6.91-0.88-10.42-7.11-9.06-19.86,1-24.64,3.41-7.6,4.71-14.41,4.84-13.24.46-14.9,0-4.58-2-6.62,0-3.31,4-.78,4.61Z"/></svg>