<svg id="Layer_1" data-name="Layer 1" xmlns="http://www.w3.org/2000/svg" viewBox="0 0 580 512"><defs><style>.cls-1{fill:#e08610;}</style></defs><title>himalayan sherpa kitchen</title><path fill="orange" class="cls-1" d="M433.82,310.1c-1.88-8.15-.94-11.29-6.59-19.45s-9.1-25.4-10.66-34.81-13.8-17.56-20.07-24.78-8.78-6-7.21-11.6,5-22.9,5.33-25.72,2.82-8.47-6.9-15.37-12.55-9.1-14.74-15.05-6.59-10.66-16.31-10.66-33.25-3.45-37.95,0-17.56,13.3-20.07,23.12-3.45,20.17-1.88,22.36-1.88,13.8.94,19.45,10.35,22.58,11.92,23.84,1.88,4.39.63,5S300.21,259,296.76,259s-8.15-2.82-12.55-9.1-5-11-14.11-11-19.45,8.15-31,7.53-24.15-5-32.93-9.72a40.47,40.47,0,0,0-17.25-4.7s-4.7-27.91,5-40.77,11.29-25.4,7.53-35.13-13.49-21.64-18.5-27.91c-2.2,6.9-3.45,21-3.45,21s-11.92-16.62-1.88-32S221.18,57,221.18,57s-41.71,25.4-59.59,46.73-13.49,35.75-7.84,51.44,8.78,20.07-1.88,32.93c4.7-18.82,3.45-28.23-6.27-39.83s-31-36.07-32.3-42.34c0.63,10,15.37,34.81,13.8,48-1.57,28.54-11.92,35.44-11.6,59s10.35,41.4,5.65,53.94-8.78,26-13.49,28.85c11.92-2.2,16.94-7.84,16.94-7.84s-3.76,7.84-.63,11.6c-3.45,3.76-11.6,13.49-11,21.33s2.51,29.48,11.29,43.91c1.88,8.78-3.14,16.31-3.14,16.31a26.77,26.77,0,0,0-18.82,3.76l7.53,19.45h58.34c11.29,0,52.06.63,57.08,0s26.35,8.78,38.26,5.65,18.5-8.15,23.52-4.7,7.84,0.94,5.33,11.92-6.27,23.52-6.27,23.52H438.84s-13.49-40.46-11.6-49.87,3.45-9.72,2.51-23.21,12.86-17.56,16-29.8S435.7,318.26,433.82,310.1Zm-259-102.83c0.07-1,0-2,.21-3a30.61,30.61,0,0,1,1.37-6.52,29,29,0,0,1,3.06-6.52c1.26-2.08,2.67-4,3.91-6a39.58,39.58,0,0,0,3.14-6l1-3c0.24-1,.56-2,0.78-3,0.46-2,1-3.92,1.26-5.81A37.85,37.85,0,0,0,190,162c0-.85,0-1.67,0-2.46l-0.16-2.23c-0.15-1.4-.31-2.64-0.5-3.66-0.39-2-.74-3.2-0.74-3.2a17.1,17.1,0,0,1,1.85,2.79,29.26,29.26,0,0,1,3.14,8.39,31.27,31.27,0,0,1,.69,6.07,24.85,24.85,0,0,1-.68,6.85,34.92,34.92,0,0,1-1.16,3.46c-0.5,1.16-1,2.16-1.6,3.45a44.75,44.75,0,0,1-4.1,6.18c-1.53,1.92-3.1,3.68-4.45,5.47a25.92,25.92,0,0,0-3.35,5.58,28.23,28.23,0,0,0-1.87,5.87c-0.27,1-.33,1.94-0.5,2.86a24.18,24.18,0,0,0-.3,2.72L176,212.67,175.94,215c-0.06,1.44-.05,2.7,0,3.74L176,222l-0.48-3.24c-0.17-1-.34-2.29-0.46-3.74l-0.22-2.31-0.1-2.58A25.36,25.36,0,0,1,174.78,207.27Zm-25.94,1.33c2.43-6.66,7.37-13.16,11.35-20.43a72.13,72.13,0,0,0,5.1-11.28,40.18,40.18,0,0,0,2.14-12,40.22,40.22,0,0,0-2.19-12.42c-1.3-4.1-2.92-8.14-4.37-12.17-0.73-2-1.43-4-2.05-6.06-0.34-1-.55-2-0.83-2.95a21.24,21.24,0,0,1-.51-3.25,17.73,17.73,0,0,1,.16-3.18c0.11-1,.48-2,0.67-2.94a29.27,29.27,0,0,1,2.14-5.12,40.87,40.87,0,0,1,5.52-7.66,66.41,66.41,0,0,1,5.16-5,54.54,54.54,0,0,1,4.88-3.87,54.45,54.45,0,0,0-4.55,4.22,61.69,61.69,0,0,0-4.58,5.4,39.27,39.27,0,0,0-4.55,7.81,20.31,20.31,0,0,0-1.4,4.81,18.18,18.18,0,0,0-.13,2.56,18.72,18.72,0,0,0,.31,2.55c0.25,0.84.34,1.63,0.68,2.53s0.63,1.94,1,2.82c0.69,1.81,1.48,3.71,2.33,5.63,1.7,3.84,3.57,7.84,5.17,12.15a51.54,51.54,0,0,1,3.28,13.89l0.14,1.85,0,1.86a26.41,26.41,0,0,1-.32,3.71,23.58,23.58,0,0,1-.82,3.62l-0.25.89,0,0.11-0.08.23-0.08.19-0.16.39-0.62,1.55c-0.36,1-1,2.17-1.48,3.24a33.31,33.31,0,0,1-1.72,3.06,64.89,64.89,0,0,1-3.77,5.53c-5.2,6.93-10.48,12.76-13.37,18.65a19.89,19.89,0,0,0-2.22,8.49c0,2.76,0,5.16,0,7.14,0,4,0,6.22,0,6.22l-0.61-6.19-0.7-7.11A21.78,21.78,0,0,1,148.84,208.6Zm-24.06,10.91a63.29,63.29,0,0,1,1.5-12,94.07,94.07,0,0,1,3.38-11.43c0.65-1.86,1.38-3.62,2.07-5.35l1-2.47c0.29-.8.59-1.59,0.84-2.4a67.67,67.67,0,0,0,2.42-9.53,64.22,64.22,0,0,0,.92-9c0.1-2.83,0-5.45-.16-7.78s-0.4-4.36-.62-6c-0.45-3.36-.9-5.28-0.9-5.28a41.66,41.66,0,0,1,2.25,4.92c0.63,1.61,1.3,3.6,2,5.93a60.65,60.65,0,0,1,1.67,8,57.63,57.63,0,0,1,.61,9.79,53.27,53.27,0,0,1-.43,5.42,43.64,43.64,0,0,1-1.24,5.6c-1.14,3.85-2.93,7.23-4.36,10.63s-3.06,6.89-4.28,10.44a52.35,52.35,0,0,0-2.58,10.81,37,37,0,0,0-.29,5.46l0.09,2.7,0.31,2.65a59.49,59.49,0,0,0,2.8,9.85c0.51,1.54,1,3.05,1.45,4.53l0.31,1.1,0.15,0.55,0,0.14,0.06,0.21v0.11l0.06,0.28a13.83,13.83,0,0,1,.22,2.76,41.62,41.62,0,0,1-1.11,8.23c-0.52,2.36-1.11,4.37-1.64,6s-1,2.92-1.38,3.78l-0.58,1.31-0.08-1.43c0-.93-0.06-2.28-0.08-4s0-3.76,0-6.12,0.06-5-.16-7.63a9.57,9.57,0,0,0-.25-1.66l-0.08-.27,0-.07v0l0,0.13,0-.14-0.2-.55-0.39-1.13a36.07,36.07,0,0,1-1.28-4.8c-0.74-3.34-1-7-1.45-10.7A74,74,0,0,1,124.78,219.52Zm-2.71,115.74c-8.7-10,5.33-27.66,13.8-28a13.57,13.57,0,0,1-2.82-10s-0.94-5,15.37-5.65,49.87-5.65,48.93,1.57-3.45,9.72-1.25,11,17.25,4.08,18.19,11-0.94,64.61-8.15,64.61-26-2.82-46.42-1.57-29.8,8.78-29.48-6S130.77,345.24,122.07,335.25Zm143,64.86c-10.35,1.88-23.21-.31-29.8-3.14s-45.48,4.08-58,0-53.63,0-57.94,0-7.29-7.53-7.29-7.53c15.68-4.39,73.39-.31,80.92,1.88s26.66,0.63,35.13.63,39.52-9.41,53.63-2.51S275.44,398.23,265.09,400.12Zm158.07-44.77c-3.06,5.41-1.18,14.58-.94,18.58s-6.12,5.41-6.12,5.41,1.65,20.23,7.53,33.17,3.76,22.82,3.76,22.82H294s2.35-9.41,4-16.47,14-23.91,8.62-28.31-8.62-19.6-8.62-19.6l-3.61-.31c-11.6,12.23-17.72,11.45-27.6,6.74s-23.52-17.25-28.54-23.84,2.23-14.54,3.76-16,4.35-8.47,4.35-12.82-8.47-7.88-12.23-8-5.29-11.79-5.65-14.85,5.29-3.88,7.41-3.65a12.25,12.25,0,0,0,6.23-1.53c1.65-.82,5.41-0.59,9.29-0.94s3.65-4.47,6.47-5.76,7.53,7.29,12,12.82,3.88,13.41,7.64,13.88,1.41-4.23,3.76-7.76,3.29-12.23-2.12-15.52-9.41-8.47-12.7-12.23-7.76-2.82-18.58-2.82-8.94-9.64-8.94-9.64v-9.64c-6.12-2.82-12.7-4.23-34.11-2.9,0.71,1.1-2.82,9.72-5.88,13.25s-18.35-.24-23-0.94-2.9-8.47-2.69-15.52-2.09-5.18-2.09-7.53,4.19-4,4.19-4c3.72-1.53,5.81,1.76,15.22-1.18s14.23,4.23,20.46,7.76,8.12,0.24,18.82,3.53,31.52-3.53,39.4-2.12S279.08,264,285.2,264s7.76,3.41,13.53,5.41,4.23-13.64,16-16,10-4.59,10-4.59c0.31-3-.94-4.08-6.12-7.37s-11.92-21.17-12.23-24.78-4.86-5.18-2.2-9.41,1.73-4.7,1.73-6.43-4.08-2.82-4.08-11.29,13.88-23.29,19.05-27.05,12-3.53,27.52-4,20,12,24.46,23.52c14.58,2.59,15.29,8,14.11,23.29S372.11,217.5,370,217.74s-0.24,6.12.47,7.76c20,4.7,42.11,29.64,43.28,40.93s3.53,27.29,7.06,32.7,4,4.7,4.23,11.29,7.53,17.88,9.41,21.41S426.21,349.93,423.16,355.34Z"/><path fill="orange" class="cls-1" d="M128.72,248.27h0Z"/><path fill="orange" class="cls-1" d="M337.22,235c-0.94-3.14-2.35-7.84-8.62-13.8s-8.31-5.65-8.15-8.31,0.63-6.12-3.14-6.12-9.78-1.55-9.88.78c0,0-.94,4.7,2.2,6.74s5.17,2.67,5,7.06,0.63,12.7,3.61,13.64S338.16,238.12,337.22,235Z"/><path fill="orange" class="cls-1" d="M305.86,307.75c3.45,1.41,3.14-16.62,3.29-19.45s0-6.59,2.67-3.76,3.14-2.82,4.86-6.74S321.23,270,328,267.29s1.88-6.27,6.59-10.19,2.7-13.64,2.7-13.64c-5-.78-5.53,0-5.37,6.43S320,261,313.39,262.9s-7.53,2.51-8,13.8-14.11,29.8-19.13,33.56-1.72,1.25-4.86,12.07S279,332.21,284.22,333s6-11.92,7.53-13.17,2.82,0.94,5.65,0,0.63-7.06.78-10.35,0,0,1.88-.16-1.57-4.86,1.25-6S302.41,306.34,305.86,307.75Z"/><path fill="orange" class="cls-1" d="M268.54,338.8c-3.61.94-3,2-3,4.86s-4.39-.78-6.21-0.31-1-2.35,1.35-5.18,2.82-7.21-7.06-6.74-6.43,12.55-6.9,18.27,2.35,6.82,4.39,6.67-1.41-5.33,1.1-8.47,2.51,1.57,2.82,6.27,3.76-1.25,3.76,1.1,0.94,5.33,3.92,5.33-0.16-11.92,2.2-11.92-0.78,3.76,3.61,4.23,3.29-6.12,3.61-10.19A3.4,3.4,0,0,0,268.54,338.8Z"/><path fill="orange" class="cls-1" d="M361.37,376.28c-17.41.47-37.95,1.57-41.4-.94s-11.36-3-11.36-3-5.73-3-4.17,5.8c0,0-1.1,4.82,6.59,8.76s21.48,8.64,32.3,8.33,40.15-1,38.89-8.33S378.78,375.81,361.37,376.28Z"/><path fill="orange" class="cls-1" d="M404.81,347.11c-10,2.2-32,1.57-39.67,5.49s-12.23,7.58-23.21,7.79-21.33.73-24,0-7.37-3.19-10.66,0-5.33,6.48-1.25,7.42l4.08,0.94s13.62,4.36,27.59,3.12,15.85-3.7,28.86-1.45,31.21,5.39,40.93,2.41,10.66-2,8.78-11.13S414.85,344.92,404.81,347.11Z"/></svg>