<svg id="Layer_1" data-name="Layer 1" xmlns="http://www.w3.org/2000/svg" viewBox="0 0 453.29 478.48"><title>himalayan sherpa kitchen</title><path fill="#e08610" d="M223,304.85c-8.47,12.34-16.21,24.17-24.54,35.55-5,6.81-10.78,13-16.46,19.31-2.05,2.27-3.18,4.09-1.75,7.22a40.64,40.64,0,0,1,2.32,8.53c2.56,12.2.45,17.11-9.27,23.14,2.41,8.42,4.94,16.54,7,24.78a18.31,18.31,0,0,1,.06,8.77c-0.46,1.76-2.92,3-4.48,4.46-0.79-1.66-2.4-3.4-2.24-5,0.88-8.88,1.27-17.54-2-26.21-2-5.24-4.61-6.85-11.14-3.91,1.21,6.78,2.47,14,3.79,21.2,0.84,4.61,2.36,9.18,2.47,13.8,0.15,6-4.81,9.63-11.26,9.08-5.66-.48-9.11-4.13-8.08-10a41.15,41.15,0,0,1,5-14.23,38.31,38.31,0,0,0,5.5-20.15c-4.13-2-6.76-.19-9.19,2.86-7.24,9.09-14.72,18-21.83,27.17-2.52,3.25-4.48,4.51-8,1.39-5.67-5-6.69-7.78-3.24-11.51,6.82-7.38,13.78-14.61,20.66-21.93a17.85,17.85,0,0,0,1.42-2.08c-16-7-27.64-18.86-38.62-32.06L79.91,381.69c-5.66,4.88-6.81,4.89-12.15-.28-1.52-1.47-2.8-3.18-4.05-4.62,9.06-8.86,17.66-17.45,26.49-25.78,2.86-2.7,3.55-5.53,3.59-9.37,0.07-6,.38-12.26,2.07-18,3.37-11.37,12.54-16.48,24.27-14.57,2.32,0.38,4.92.57,6.82,1.76,7.27,4.58,11.78,1.39,16.62-4.32a284.22,284.22,0,0,1,22-23.1c3.92-3.7,3.92-7,3-11.84-3.36-17.75-6.88-35.53-8.76-53.47-2.18-20.71,2.45-40.85,10-60.07,14-35.91,28.65-71.59,43.1-107.34,2.13-5.26,3.4-5.64,8.24-3.35,5.13-5.12,5.72-5.07,8.86,1.37,14.89,30.6,31,60.66,41.78,93.08,11.68,35.06,14,70.82,7.86,107.2-1.15,6.79-2.49,13.55-3.78,20.31-1.19,6.24-.14,12.16,4.76,16.23,14.22,11.8,28.73,23.24,43.27,34.64,0.92,0.72,3.26.29,4.62-.32,8.51-3.82,14.63-3,19.25,5.19,4.48,7.93,6.91,17,10.49,25.47,1.41,3.33,2.92,6.9,5.33,9.46,7.56,8,15.65,15.54,23.36,23.43a9.19,9.19,0,0,1,2.7,5.47c0.06,1.88-1.45,3.81-2.26,5.71-1.7-1-3.8-1.6-5-3-7.51-8.53-14.82-17.23-22.77-26.55-7.15,22.69-23.55,35.4-44.94,44.91l16.48,18.53c-4.83,6.59-8.88,7.23-14,1.56-4.72-5.25-8.93-10.94-13.44-16.38a9.44,9.44,0,0,0-3.29-2.95c-5.62-2.22-11.35-4.17-18.61-6.79,0.39,6.41.58,12.67,1.22,18.88,0.54,5.23,2,10.39,2.32,15.63,0.34,4.82-3,7.36-7.39,7.48a7.1,7.1,0,0,1-7.59-7.42c0.08-4.78,1.68-9.55,2.79-14.29,1.94-8.3,4-16.58,6-24.86l-2.73-1.19c-3.11,4.74-6.63,9.27-9.2,14.29-2.5,4.87-3.67,10.41-6.15,15.28-1,2-3.93,2.91-6,4.32-0.35-2-1.35-4.21-1-6.09,2.71-12.86,9.23-23.72,18.65-33.39a60.11,60.11,0,0,1-11.79-34,8.58,8.58,0,0,0-1.92-4.24C247.15,337.94,235.21,321.57,223,304.85ZM217.62,60.76c-0.82,1.55-1.69,3.08-2.46,4.66a727.67,727.67,0,0,0-38.83,96.22c-4.85,15.14-10.38,30.16-8.19,46.63,1.11,8.37,1.05,16.91,2.28,25.26,2.13,14.58,4.51,29.14,7.55,43.55,0.81,3.85.52,6-2,8.78-14,15.19-27.79,30.6-41.77,45.83a11.58,11.58,0,0,0-3,11.31c2.48,11.21,17.2,22.19,28.39,20.74a6.47,6.47,0,0,0,3.45-1.93c17.41-17.95,34.68-36.06,48.06-57.34,2.72-4.33,5.37-9.66,5.46-14.56,1-62.2,1.6-124.42,2.28-186.63,0-2.05,0-4.1,0-7.86a38.58,38.58,0,0,0-2.49,3.71c-8.47,18.68-16.07,37.66-18,58.33-0.5,5.28-2.71,6.4-7.39,4.51a15.63,15.63,0,0,1,0-2.43c3.95-23.45,10.86-46.1,22.24-66.88C218.92,82.13,218.92,71.87,217.62,60.76Zm10.68,61.65a12.61,12.61,0,0,0-.72,2.13q-1.33,78-2.51,155.92a22.71,22.71,0,0,0,2.44,10.12,265.84,265.84,0,0,0,49.28,68.11c11.32,11.37,16.66,11.65,29.75,1.93,8.52-6.33,13.86-14.82,16.64-25.07,1-3.57.3-5.67-2.87-7.78-11.94-8-23.69-16.25-35.5-24.42-14.09-9.75-19.49-23.06-16.43-39.89,1.09-6,2.16-12,3.06-18,4.37-29.45,4.53-58.91-8.12-86.35-9.51-20.63-22-39.91-33.16-59.77A21.15,21.15,0,0,0,228,96.58l-1.35.54c0.53,3.19.21,6.88,1.74,9.48,9.68,16.37,14.73,34.26,18.18,52.73,0.52,2.8,2.17,6.09-2.42,7s-4.95-2.24-5.31-5.65A121.2,121.2,0,0,0,228.3,122.41ZM336.16,330.8c-9.65,28.84-29.23,44.11-57.47,48.68,1.42,8.78,6.78,13.8,12.6,18.68,3.68,3.08,7.32,5.09,12.31,3.85,4.18-1,8.57-1.29,12.67-2.54C337,393.19,353,372,352.12,351.86c-0.2-4.41-.26-9.3-5.07-12.34-4,19.12-13.26,30.65-25.18,31.35C331.25,359.69,341.65,349.07,336.16,330.8ZM176.71,371.53c-16.9,3.11-31.94,1.09-44-12.35-11.5-12.85-16-27.52-12.23-44.44C106.44,314.16,98.9,323,100.77,337c2.28,17.15,10.13,31.42,24,41.84,11.34,8.55,23.74,14.85,38.75,12.37C173.51,389.58,178.51,382.42,176.71,371.53ZM259,136.83c-8.45-25.16-17.52-50-31.36-73.93-1.81,10.91-.43,19.51,5.3,28,7.35,10.87,13.35,22.67,19.84,34.11C255,128.87,257,132.88,259,136.83Z"/><path fill="#e08610" d="M111.63,341.17l20,29.84C116.78,370.46,108.86,358.4,111.63,341.17Z"/></svg>