<svg xmlns="http://www.w3.org/2000/svg" viewBox="0 0 384 512"><!--!Font Awesome Free 6.7.2 by @fontawesome - https://fontawesome.com License - https://fontawesome.com/license/free Copyright 2025 Fonticons, Inc.--><path d="M42.9 240.3l99.6 48.6c19.2 9.4 16.2 37.5-4.5 42.7L30.5 358.5a22.8 22.8 0 0 1 -28.2-19.6 197.2 197.2 0 0 1 9-85.3 22.8 22.8 0 0 1 31.6-13.2zm44 239.3a199.5 199.5 0 0 0 79.4 32.1A22.8 22.8 0 0 0 192.9 490l3.9-110.8c.7-21.3-25.5-31.9-39.8-16.1l-74.2 82.4a22.8 22.8 0 0 0 4.1 34.1zm145.3-109.9l58.8 94a22.9 22.9 0 0 0 34 5.5 198.4 198.4 0 0 0 52.7-67.6A23 23 0 0 0 364.2 370l-105.4-34.3c-20.3-6.5-37.8 15.8-26.5 33.9zm148.3-132.2a197.4 197.4 0 0 0 -50.4-69.3 22.9 22.9 0 0 0 -34 4.4l-62 91.9c-11.9 17.7 4.7 40.6 25.2 34.7L366 268.6a23 23 0 0 0 14.6-31.2zM62.1 30.2a22.9 22.9 0 0 0 -9.9 32l104.1 180.4c11.7 20.2 42.6 11.9 42.6-11.4V22.9a22.7 22.7 0 0 0 -24.5-22.8 320.4 320.4 0 0 0 -112.3 30.1z"/></svg>